:SAMPLES-PER-SECOND 25
:FULLY-SPECIFIED
:DEGREES
418
root  7.94647 39.307 -81.3907 3.1705 0.361102 -0.156598
RightUpLeg  -21.7778 0.901581 0.0780095
RightLeg  5.54075 0.96427 -1.61844
RightFoot  3.64045 -0.49986 3.96653
RightToes  2.84633e-005 7.89722e-005 -0.000426369
Spine  3.78752 -2.10034 1.31365
Spine1  7.52288 -4.32095 1.35201
HEad  14.8881 -2.61401 -6.10975
LeftShoulder1  -3.88251e-019 0 -3.92111e-022
LeftArm  -30.6982 -4.97099 -84.0915
LeftForeArm  30.7808 2.13251 -0.106707
LeftHand  -0.948523 -4.8371 11.0419
RightShoulder  7.45443e-017 -2.42657e-020 1.96277e-018
RightArm  5.48973 -5.9932 72.8229
RightForeArm  2.67439 20.7097 6.2716
RightHand  -1.96901 11.8867 -13.5501
LeftUpLeg  -7.80473 0.229123 -4.00816
LeftLeg  15.6332 4.33919 1.60155
LeftFoot  -12.2901 0.1079 4.08067
LeftToes  3.91355e-005 3.11907e-005 -4.10385e-006
419
root  7.764 39.1817 -80.5646 3.17172 1.3162 -0.00798072
RightUpLeg  -21.1612 0.885117 0.214322
RightLeg  3.99847 2.03077 -1.46326
RightFoot  7.99916 -0.74118 4.68616
RightToes  2.84633e-005 7.89722e-005 -0.000426369
Spine  3.73788 -1.83257 1.59648
Spine1  7.39433 -3.80821 1.55287
HEad  14.8991 -4.18874 -6.8972
LeftShoulder1  -3.88251e-019 0 -3.92111e-022
LeftArm  -30.6091 -5.10234 -85.0344
LeftForeArm  31.1584 2.19089 -0.202071
LeftHand  -0.958265 -4.98455 10.9996
RightShoulder  7.45443e-017 -2.42657e-020 1.96277e-018
RightArm  7.89715 -5.83494 72.5526
RightForeArm  0.703057 21.6698 5.71728
RightHand  -2.11157 12.5324 -13.9873
LeftUpLeg  -7.24954 -0.21866 -3.86462
LeftLeg  17.3818 3.85279 1.6737
LeftFoot  -14.4862 0.186271 3.63758
LeftToes  3.91355e-005 3.11907e-005 -4.10385e-006
420
root  7.55608 39.1071 -79.6792 3.01437 2.86068 -0.759623
RightUpLeg  -20.5334 1.19864 1.08419
RightLeg  5.74243 0.848992 -1.47105
RightFoot  9.43821 -0.534843 3.28866
RightToes  2.84633e-005 7.89722e-005 -0.000426369
Spine  3.75159 -1.82001 2.25716
Spine1  7.39512 -3.78582 2.77855
HEad  15.1711 -6.0024 -8.05928
LeftShoulder1  -3.88251e-019 0 -3.92111e-022
LeftArm  -30.8838 -4.04945 -85.6508
LeftForeArm  31.4566 1.99699 -0.82941
LeftHand  -0.964893 -4.94073 11.1178
RightShoulder  7.45443e-017 -2.42657e-020 1.96277e-018
RightArm  6.9481 -4.97527 72.6595
RightForeArm  1.69266 21.2736 5.90053
RightHand  -2.23317 13.2555 -14.2172
LeftUpLeg  -6.59996 -0.0996971 -2.48203
LeftLeg  19.3221 2.24898 1.20804
LeftFoot  -16.8882 0.254074 3.12806
LeftToes  3.91355e-005 3.11907e-005 -4.10385e-006
421
root  7.33703 38.8891 -78.9125 3.13318 3.93062 -2.22365
RightUpLeg  -22.0341 2.71906 2.40787
RightLeg  10.8761 -1.35217 -1.51648
RightFoot  6.43149 -0.14287 1.19563
RightToes  2.84633e-005 7.89722e-005 -0.000426369
Spine  3.73732 -1.54153 3.15032
Spine1  7.34664 -3.24288 4.43052
HEad  14.6666 -6.58267 -9.09132
LeftShoulder1  -3.88251e-019 0 -3.92111e-022
LeftArm  -31.1855 -2.76291 -86.2912
LeftForeArm  31.7145 -0.207293 -1.79864
LeftHand  -0.953273 -4.78174 11.1507
RightShoulder  7.45443e-017 -2.42657e-020 1.96277e-018
RightArm  7.82137 -3.8107 72.6159
RightForeArm  0.126923 22.1454 5.43984
RightHand  -2.37741 13.1646 -15.1675
LeftUpLeg  -8.37152 0.567049 -0.248285
LeftLeg  24.9328 0.999484 0.843775
LeftFoot  -19.1781 0.234564 1.74361
LeftToes  3.91355e-005 3.11907e-005 -4.10385e-006
422
root  7.09745 38.7164 -78.2429 3.60419 4.5424 -4.03091
RightUpLeg  -22.8691 3.86215 4.24159
RightLeg  13.4644 -3.14163 -1.5754
RightFoot  3.95697 -0.172246 1.48425
RightToes  2.84633e-005 7.89722e-005 -0.000426369
Spine  3.85612 -1.00569 4.44205
Spine1  7.54498 -2.24118 6.14901
HEad  12.9278 -7.87968 -8.95862
LeftShoulder1  -3.88251e-019 0 -3.92111e-022
LeftArm  -30.8499 -2.14879 -87.2332
LeftForeArm  31.4294 -2.62057 -2.80463
LeftHand  -0.933692 -4.68267 11.0292
RightShoulder  7.45443e-017 -2.42657e-020 1.96277e-018
RightArm  8.86103 -1.34656 72.075
RightForeArm  -2.38961 23.0874 5.22465
RightHand  -2.47219 13.2582 -15.6712
LeftUpLeg  -13.1761 3.62444 2.51466
LeftLeg  34.7017 -1.07741 -0.415189
LeftFoot  -17.5957 0.132622 0.425116
LeftToes  3.91355e-005 3.11907e-005 -4.10385e-006
423
root  6.91019 38.6243 -77.6885 3.6601 5.78436 -5.16043
RightUpLeg  -22.6793 3.76281 5.46122
RightLeg  14.64 -4.35567 -1.60277
RightFoot  2.20204 -0.18519 1.68242
RightToes  2.84633e-005 7.89722e-005 -0.000426369
Spine  4.2312 -0.759138 5.31532
Spine1  8.27139 -1.81228 7.0325
HEad  10.98 -8.96272 -7.21751
LeftShoulder1  -3.88251e-019 0 -3.92111e-022
LeftArm  -29.922 -2.5372 -87.1476
LeftForeArm  31.7511 -4.60143 -4.00347
LeftHand  -0.852724 -4.45259 10.3255
RightShoulder  7.45443e-017 -2.42657e-020 1.96277e-018
RightArm  8.54678 1.94441 71.7592
RightForeArm  -2.87657 24.0111 5.2666
RightHand  -2.84725 13.9235 -17.3453
LeftUpLeg  -18.2588 3.65588 4.12444
LeftLeg  44.1365 -0.71778 -0.323774
LeftFoot  -13.2375 0.0532681 -1.81848
LeftToes  3.91355e-005 3.11907e-005 -4.10385e-006
424
root  6.71497 38.6615 -77.198 3.4176 6.4517 -5.57282
RightUpLeg  -21.5654 3.69531 6.21237
RightLeg  14.4907 -4.9879 -1.611
RightFoot  1.36835 -0.153485 1.461
RightToes  2.84633e-005 7.89722e-005 -0.000426369
Spine  4.66746 -0.415534 5.74815
Spine1  9.15935 -1.19364 7.33808
HEad  9.76974 -9.2972 -5.49281
LeftShoulder1  -3.88251e-019 0 -3.92111e-022
LeftArm  -29.2669 -3.93748 -86.9756
LeftForeArm  33.5116 -5.9745 -4.4374
LeftHand  -0.820538 -4.67836 9.743
RightShoulder  7.45443e-017 -2.42657e-020 1.96277e-018
RightArm  7.78445 6.00269 71.0161
RightForeArm  -2.23516 24.7599 5.41582
RightHand  -3.267 14.98 -18.8214
LeftUpLeg  -22.0995 3.25894 4.87845
LeftLeg  49.5096 -0.340811 0.00970841
LeftFoot  -12.0625 0.0588284 -2.18898
LeftToes  3.91355e-005 3.11907e-005 -4.10385e-006
